<?xml version="1.0" encoding="UTF-8"?>
<!DOCTYPE svg PUBLIC "-//W3C//DTD SVG 1.1//EN" "http://www.w3.org/Graphics/SVG/1.1/DTD/svg11.dtd">
<svg xmlns="http://www.w3.org/2000/svg" version="1.1" width="398px" height="126px" style="shape-rendering:geometricPrecision; text-rendering:geometricPrecision; image-rendering:optimizeQuality; fill-rule:evenodd; clip-rule:evenodd" xmlns:xlink="http://www.w3.org/1999/xlink">
<g><path style="opacity:1" fill="#f2f2f2" d="M -0.5,-0.5 C 132.167,-0.5 264.833,-0.5 397.5,-0.5C 397.5,41.5 397.5,83.5 397.5,125.5C 264.833,125.5 132.167,125.5 -0.5,125.5C -0.5,83.5 -0.5,41.5 -0.5,-0.5 Z"/></g>
<g><path style="opacity:1" fill="#646361" d="M 5.5,19.5 C 4.8969,24.6186 5.56356,29.2853 7.5,33.5C 6.79105,34.404 5.79105,34.7373 4.5,34.5C 4.17949,29.3054 4.51283,24.3054 5.5,19.5 Z"/></g>
<g><path style="opacity:1" fill="#191916" d="M 87.5,19.5 C 97.8756,18.3576 101.209,22.5243 97.5,32C 94.3117,33.3158 90.9783,33.8158 87.5,33.5C 87.5,28.8333 87.5,24.1667 87.5,19.5 Z"/></g>
<g><path style="opacity:1" fill="#12120e" d="M 5.5,19.5 C 12.2842,18.185 14.6175,20.685 12.5,27C 10.9751,28.0086 9.30839,28.5086 7.5,28.5C 7.5,30.1667 7.5,31.8333 7.5,33.5C 5.56356,29.2853 4.8969,24.6186 5.5,19.5 Z"/></g>
<g><path style="opacity:1" fill="#161512" d="M 51.5,19.5 C 54.2469,19.1866 56.9135,19.52 59.5,20.5C 57.9547,21.4519 56.288,21.7852 54.5,21.5C 54.5,22.8333 54.5,24.1667 54.5,25.5C 61.1667,26.1667 61.1667,26.8333 54.5,27.5C 54.5,28.8333 54.5,30.1667 54.5,31.5C 56.604,31.2011 58.604,31.5344 60.5,32.5C 57.5719,33.4841 54.5719,33.8174 51.5,33.5C 51.5,28.8333 51.5,24.1667 51.5,19.5 Z"/></g>
<g><path style="opacity:1" fill="#dbdbda" d="M 7.5,21.5 C 8.5,21.5 9.5,21.5 10.5,21.5C 10.5,22.8333 10.5,24.1667 10.5,25.5C 9.5,25.5 8.5,25.5 7.5,25.5C 7.5,24.1667 7.5,22.8333 7.5,21.5 Z"/></g>
<g><path style="opacity:1" fill="#e3e3e2" d="M 90.5,21.5 C 96.4945,22.4983 97.8278,25.4983 94.5,30.5C 93.2638,31.2458 91.9305,31.5792 90.5,31.5C 90.5,28.1667 90.5,24.8333 90.5,21.5 Z"/></g>
<g><path style="opacity:1" fill="#1a1917" d="M 19.5,19.5 C 25.4218,18.2782 28.4218,20.6115 28.5,26.5C 28.3513,33.1535 25.018,35.3202 18.5,33C 14.1981,28.0514 14.5314,23.5514 19.5,19.5 Z"/></g>
<g><path style="opacity:1" fill="#e6e6e5" d="M 20.5,21.5 C 22.1439,21.2865 23.6439,21.6198 25,22.5C 25.7772,25.4294 25.6105,28.2628 24.5,31C 21.7825,32.033 19.9492,31.1997 19,28.5C 18.3911,25.9348 18.8911,23.6015 20.5,21.5 Z"/></g>
<g><path style="opacity:1" fill="#1a1916" d="M 106.5,19.5 C 109.685,19.0196 112.519,19.6863 115,21.5C 115.72,23.1124 115.554,24.6124 114.5,26C 116.994,28.4231 116.994,30.7564 114.5,33C 111.854,33.4974 109.187,33.6641 106.5,33.5C 106.5,28.8333 106.5,24.1667 106.5,19.5 Z"/></g>
<g><path style="opacity:1" fill="#e0e0df" d="M 109.5,21.5 C 112.861,22.2032 113.194,23.5365 110.5,25.5C 109.571,24.3112 109.238,22.9778 109.5,21.5 Z"/></g>
<g><path style="opacity:1" fill="#21201d" d="M 116.5,19.5 C 117.552,19.3505 118.552,19.5172 119.5,20C 120.304,21.7713 121.471,23.2713 123,24.5C 124.046,22.9095 125.213,21.4095 126.5,20C 127.5,19.3333 128.5,19.3333 129.5,20C 125.156,23.8755 123.489,28.7088 124.5,34.5C 123.5,34.5 122.5,34.5 121.5,34.5C 121.663,32.1432 121.497,29.8098 121,27.5C 119.223,24.9406 117.723,22.2739 116.5,19.5 Z"/></g>
<g><path style="opacity:1" fill="#343332" d="M 129.5,23.5 C 130.5,23.5 131.5,23.5 132.5,23.5C 132.5,24.5 132.5,25.5 132.5,26.5C 131.5,26.5 130.5,26.5 129.5,26.5C 129.5,25.5 129.5,24.5 129.5,23.5 Z"/></g>
<g><path style="opacity:1" fill="#0b0a05" d="M 76.5,19.5 C 79.2469,19.1866 81.9135,19.52 84.5,20.5C 82.604,21.4656 80.604,21.7989 78.5,21.5C 78.5,22.8333 78.5,24.1667 78.5,25.5C 85.1667,26.1667 85.1667,26.8333 78.5,27.5C 78.5,28.8333 78.5,30.1667 78.5,31.5C 81.0821,31.0254 83.0821,31.6921 84.5,33.5C 81.8333,33.5 79.1667,33.5 76.5,33.5C 76.5,28.8333 76.5,24.1667 76.5,19.5 Z"/></g>
<g><path style="opacity:1" fill="#191815" d="M 30.5,20.5 C 31.209,19.596 32.209,19.2627 33.5,19.5C 34.912,30.4876 36.412,30.8209 38,20.5C 39.3561,19.6198 40.8561,19.2865 42.5,19.5C 43.2608,30.0143 44.5942,30.0143 46.5,19.5C 47.675,19.281 48.675,19.6143 49.5,20.5C 47.8763,24.7011 46.8763,29.0345 46.5,33.5C 45.1667,33.5 43.8333,33.5 42.5,33.5C 42.2634,30.3527 41.4301,27.3527 40,24.5C 39.1506,27.5214 38.3173,30.5214 37.5,33.5C 36.1779,33.67 35.0113,33.3366 34,32.5C 33.1194,28.2915 31.9527,24.2915 30.5,20.5 Z"/></g>
<g><path style="opacity:1" fill="#cfcfce" d="M 109.5,27.5 C 111.346,27.2222 112.68,27.8888 113.5,29.5C 112.68,31.1112 111.346,31.7778 109.5,31.5C 109.5,30.1667 109.5,28.8333 109.5,27.5 Z"/></g>
<g><path style="opacity:1" fill="#191815" d="M 63.5,19.5 C 65.8568,19.3367 68.1902,19.5034 70.5,20C 73.1667,22.3333 73.1667,24.6667 70.5,27C 71.627,28.7533 72.627,30.5866 73.5,32.5C 73,32.8333 72.5,33.1667 72,33.5C 70.4981,31.8253 68.9981,30.1587 67.5,28.5C 66.5481,30.0453 66.2148,31.712 66.5,33.5C 65.5,33.5 64.5,33.5 63.5,33.5C 63.5,28.8333 63.5,24.1667 63.5,19.5 Z"/></g>
<g><path style="opacity:1" fill="#e9e9e8" d="M 66.5,22.5 C 67.5,22.5 68.5,22.5 69.5,22.5C 69.5,23.5 69.5,24.5 69.5,25.5C 68.5,25.5 67.5,25.5 66.5,25.5C 66.5,24.5 66.5,23.5 66.5,22.5 Z"/></g>
<g><path style="opacity:1" fill="#2a2a27" d="M 129.5,30.5 C 130.5,30.5 131.5,30.5 132.5,30.5C 132.5,31.5 132.5,32.5 132.5,33.5C 131.5,33.5 130.5,33.5 129.5,33.5C 129.5,32.5 129.5,31.5 129.5,30.5 Z"/></g>
<g><path style="opacity:1" fill="#898986" d="M 76.5,19.5 C 76.5,24.1667 76.5,28.8333 76.5,33.5C 79.1667,33.5 81.8333,33.5 84.5,33.5C 81.7131,34.4767 78.7131,34.81 75.5,34.5C 75.1795,29.3054 75.5128,24.3054 76.5,19.5 Z"/></g>
<g><path style="opacity:1" fill="#19b1fa" d="M 29.5,39.5 C 36.9355,39.2213 44.2688,39.8879 51.5,41.5C 51.5,44.5 51.5,47.5 51.5,50.5C 42.6072,47.4151 33.9405,47.9151 25.5,52C 17.5788,59.2883 15.4121,68.1216 19,78.5C 23.5103,86.0885 30.177,89.7551 39,89.5C 43.331,89.6038 47.4976,88.9372 51.5,87.5C 52.0111,91.0297 51.3444,94.1963 49.5,97C 36.4657,100.529 24.4657,98.5291 13.5,91C 3.89553,80.0327 2.0622,67.8661 8,54.5C 13.0905,46.3833 20.2572,41.3833 29.5,39.5 Z"/></g>
<g><path style="opacity:1" fill="#12b1fa" d="M 82.5,39.5 C 89.6021,39.2512 96.6021,39.9178 103.5,41.5C 103.817,44.5719 103.484,47.5719 102.5,50.5C 88.9901,45.0412 78.4901,48.3746 71,60.5C 67.5117,82.0138 76.6784,91.5138 98.5,89C 99.8721,88.5983 101.205,88.0983 102.5,87.5C 102.833,89 103.167,90.5 103.5,92C 103.371,93.9806 102.704,95.6472 101.5,97C 86.0145,101.608 72.8479,98.1075 62,86.5C 55.7635,74.2953 56.0968,62.2953 63,50.5C 68.3362,44.5866 74.8362,40.9199 82.5,39.5 Z"/></g>
<g><path style="opacity:1" fill="#1a1916" d="M 138.5,70.5 C 136.167,70.5 133.833,70.5 131.5,70.5C 135.151,61.1923 138.818,51.8589 142.5,42.5C 145.446,41.3452 148.446,41.1786 151.5,42C 158.397,60.1891 165.397,78.3558 172.5,96.5C 169.914,97.48 167.247,97.8134 164.5,97.5C 159.17,81.0121 153.337,64.6788 147,48.5C 144.06,55.8227 141.227,63.1561 138.5,70.5 Z"/></g>
<g><path style="opacity:1" fill="#333331" d="M 378.5,47.5 C 388.253,45.9233 392.753,49.9233 392,59.5C 389.081,65.0248 384.581,66.8581 378.5,65C 371.889,59.1327 371.889,53.2993 378.5,47.5 Z"/></g>
<g><path style="opacity:1" fill="#eaeaea" d="M 379.5,48.5 C 388.152,47.9858 391.652,51.9858 390,60.5C 385.333,65.8333 380.667,65.8333 376,60.5C 374.593,55.6427 375.76,51.6427 379.5,48.5 Z"/></g>
<g><path style="opacity:1" fill="#2c2c2a" d="M 378.5,51.5 C 381.119,51.2317 383.619,51.565 386,52.5C 386.684,54.4789 386.184,56.1456 384.5,57.5C 385.833,58.6199 386.333,59.9532 386,61.5C 384.743,59.2542 382.91,57.9209 380.5,57.5C 380.762,58.9778 380.429,60.3112 379.5,61.5C 378.513,58.2317 378.18,54.8984 378.5,51.5 Z"/></g>
<g><path style="opacity:1" fill="#e6e6e6" d="M 380.5,52.5 C 381.833,52.5 383.167,52.5 384.5,52.5C 384.5,53.5 384.5,54.5 384.5,55.5C 383.167,55.5 381.833,55.5 380.5,55.5C 380.5,54.5 380.5,53.5 380.5,52.5 Z"/></g>
<g><path style="opacity:1" fill="#1a1916" d="M 243.5,77.5 C 233.833,77.5 224.167,77.5 214.5,77.5C 214.232,79.099 214.566,80.4324 215.5,81.5C 217.021,88.8542 221.521,92.1875 229,91.5C 232.664,91.6172 236.164,90.9505 239.5,89.5C 240.466,91.396 240.799,93.396 240.5,95.5C 217.57,101.726 206.737,93.059 208,69.5C 212.077,57.7845 220.243,53.2845 232.5,56C 241.042,60.5833 244.709,67.7499 243.5,77.5 Z"/></g>
<g><path style="opacity:1" fill="#aaa9a6" d="M 259.5,61.5 C 259.44,62.0431 259.107,62.3764 258.5,62.5C 257.534,60.604 257.201,58.604 257.5,56.5C 255.5,56.5 253.5,56.5 251.5,56.5C 251.5,69.8333 251.5,83.1667 251.5,96.5C 250.504,83.0102 250.171,69.3435 250.5,55.5C 253.167,55.5 255.833,55.5 258.5,55.5C 258.205,57.7354 258.539,59.7354 259.5,61.5 Z"/></g>
<g><path style="opacity:1" fill="#191815" d="M 371.5,70.5 C 371.5,72.8333 371.5,75.1667 371.5,77.5C 361.985,77.1731 352.652,77.5064 343.5,78.5C 345.359,89.9448 352.026,94.1115 363.5,91C 364.872,90.5983 366.205,90.0983 367.5,89.5C 368.938,91.9977 368.604,94.1644 366.5,96C 343.336,100.505 333.503,91.0047 337,67.5C 344.199,54.6676 354.199,52.0009 367,59.5C 369.616,62.7294 371.116,66.3961 371.5,70.5 Z"/></g>
<g><path style="opacity:1" fill="#1a1916" d="M 251.5,96.5 C 251.5,83.1667 251.5,69.8333 251.5,56.5C 253.5,56.5 255.5,56.5 257.5,56.5C 257.201,58.604 257.534,60.604 258.5,62.5C 259.107,62.3764 259.44,62.0431 259.5,61.5C 264.172,55.8515 270.172,54.0181 277.5,56C 282.626,58.0664 285.459,61.8997 286,67.5C 286.5,77.1609 286.666,86.8276 286.5,96.5C 283.833,96.5 281.167,96.5 278.5,96.5C 278.666,86.4944 278.5,76.4944 278,66.5C 274.279,61.3349 269.446,60.1682 263.5,63C 261.383,64.7309 259.883,66.8976 259,69.5C 258.5,78.4938 258.334,87.4938 258.5,96.5C 256.167,96.5 253.833,96.5 251.5,96.5 Z"/></g>
<g><path style="opacity:1" fill="#1a1915" d="M 293.5,56.5 C 295.833,56.5 298.167,56.5 300.5,56.5C 300.334,65.5062 300.5,74.5062 301,83.5C 303.27,91.2166 308.103,93.3832 315.5,90C 318.231,87.3741 320.064,84.2074 321,80.5C 321.5,72.5069 321.666,64.5069 321.5,56.5C 323.833,56.5 326.167,56.5 328.5,56.5C 328.5,70.1667 328.5,83.8333 328.5,97.5C 326.167,97.5 323.833,97.5 321.5,97.5C 321.663,95.1432 321.497,92.8098 321,90.5C 313.842,98.5485 305.842,99.5485 297,93.5C 295.725,91.2827 294.725,88.9494 294,86.5C 293.5,76.5056 293.334,66.5056 293.5,56.5 Z"/></g>
<g><path style="opacity:1" fill="#1b1a17" d="M 168.5,57.5 C 171.247,57.1866 173.914,57.52 176.5,58.5C 179.901,69.2033 183.401,79.87 187,90.5C 190.655,79.5442 194.155,68.5442 197.5,57.5C 199.833,57.5 202.167,57.5 204.5,57.5C 200.505,70.6522 196.005,83.6522 191,96.5C 187.943,97.4505 184.777,97.7839 181.5,97.5C 177.566,84.0323 173.233,70.699 168.5,57.5 Z"/></g>
<g><path style="opacity:1" fill="#f2f2f2" d="M 236.5,72.5 C 229.087,73.1279 222.087,72.4612 215.5,70.5C 217.499,61.3268 222.833,58.4935 231.5,62C 235.192,64.5497 236.858,68.0497 236.5,72.5 Z"/></g>
<g><path style="opacity:1" fill="#f1f1f1" d="M 364.5,70.5 C 357.913,72.4612 350.913,73.1279 343.5,72.5C 344.772,61.8645 350.439,58.3645 360.5,62C 363.011,64.3255 364.344,67.1589 364.5,70.5 Z"/></g>
<g><path style="opacity:1" fill="#ee988e" d="M 131.5,70.5 C 123.5,71.1667 115.5,71.8333 107.5,72.5C 106.325,72.719 105.325,72.3857 104.5,71.5C 113.475,70.5018 122.475,70.1685 131.5,70.5 Z"/></g>
<g><path style="opacity:1" fill="#f52209" d="M 131.5,70.5 C 133.833,70.5 136.167,70.5 138.5,70.5C 142.298,71.4834 146.298,71.8168 150.5,71.5C 151.044,75.1005 152.044,78.6005 153.5,82C 153.167,82.5 152.833,83 152.5,83.5C 147.094,81.0652 141.427,79.7318 135.5,79.5C 133.343,78.5933 131.01,77.9267 128.5,77.5C 121.649,75.3011 114.649,73.6345 107.5,72.5C 115.5,71.8333 123.5,71.1667 131.5,70.5 Z"/></g>
<g><path style="opacity:1" fill="#93928f" d="M 215.5,70.5 C 222.087,72.4612 229.087,73.1279 236.5,72.5C 229.352,73.4916 222.019,73.825 214.5,73.5C 214.263,72.209 214.596,71.209 215.5,70.5 Z"/></g>
<g><path style="opacity:1" fill="#939290" d="M 364.5,70.5 C 365.404,71.209 365.737,72.209 365.5,73.5C 357.981,73.825 350.648,73.4916 343.5,72.5C 350.913,73.1279 357.913,72.4612 364.5,70.5 Z"/></g>
<g><path style="opacity:1" fill="#888885" d="M 243.5,77.5 C 234.348,78.4936 225.015,78.8269 215.5,78.5C 215.5,79.5 215.5,80.5 215.5,81.5C 214.566,80.4324 214.232,79.099 214.5,77.5C 224.167,77.5 233.833,77.5 243.5,77.5 Z"/></g>
<g><path style="opacity:1" fill="#8a8a87" d="M 371.5,70.5 C 372.473,72.9479 372.806,75.6146 372.5,78.5C 362.833,78.5 353.167,78.5 343.5,78.5C 352.652,77.5064 361.985,77.1731 371.5,77.5C 371.5,75.1667 371.5,72.8333 371.5,70.5 Z"/></g>
<g><path style="opacity:1" fill="#1d1a17" d="M 128.5,77.5 C 131.01,77.9267 133.343,78.5933 135.5,79.5C 133.243,85.099 131.077,90.7656 129,96.5C 126.534,97.7766 124.034,97.7766 121.5,96.5C 124.037,90.22 126.37,83.8867 128.5,77.5 Z"/></g>
<g><path style="opacity:1" fill="#999895" d="M 148.5,104.5 C 148.5,110.5 148.5,116.5 148.5,122.5C 147.833,122.5 147.167,122.5 146.5,122.5C 146.5,122.167 146.5,121.833 146.5,121.5C 147.167,115.833 147.833,110.167 148.5,104.5 Z"/></g>
<g><path style="opacity:1" fill="#141310" d="M 9.5,104.5 C 10.5,104.5 11.5,104.5 12.5,104.5C 12.5,110.5 12.5,116.5 12.5,122.5C 11.5,122.5 10.5,122.5 9.5,122.5C 9.66568,118.154 9.49902,113.821 9,109.5C 7.45548,110.821 6.28881,110.488 5.5,108.5C 6.86653,107.16 8.19986,105.827 9.5,104.5 Z"/></g>
<g><path style="opacity:1" fill="#191815" d="M 146.5,121.5 C 146.5,121.833 146.5,122.167 146.5,122.5C 145.167,122.5 143.833,122.5 142.5,122.5C 142.313,120.436 141.813,118.436 141,116.5C 139.989,115.663 138.822,115.33 137.5,115.5C 137.5,117.833 137.5,120.167 137.5,122.5C 136.5,122.5 135.5,122.5 134.5,122.5C 134.5,116.5 134.5,110.5 134.5,104.5C 138.257,104.071 141.757,104.737 145,106.5C 145.725,109.377 145.225,112.043 143.5,114.5C 144.788,116.739 145.788,119.072 146.5,121.5 Z"/></g>
<g><path style="opacity:1" fill="#12110e" d="M 148.5,104.5 C 151.833,104.5 155.167,104.5 158.5,104.5C 158.5,105.5 158.5,106.5 158.5,107.5C 156.167,107.5 153.833,107.5 151.5,107.5C 151.5,108.833 151.5,110.167 151.5,111.5C 153.833,111.5 156.167,111.5 158.5,111.5C 158.5,112.5 158.5,113.5 158.5,114.5C 156.167,114.5 153.833,114.5 151.5,114.5C 151.5,116.167 151.5,117.833 151.5,119.5C 153.833,119.5 156.167,119.5 158.5,119.5C 158.5,120.5 158.5,121.5 158.5,122.5C 155.167,122.5 151.833,122.5 148.5,122.5C 148.5,116.5 148.5,110.5 148.5,104.5 Z"/></g>
<g><path style="opacity:1" fill="#151411" d="M 168.5,104.5 C 171.187,104.336 173.854,104.503 176.5,105C 179.512,107.221 180.179,110.054 178.5,113.5C 176.49,115.171 174.157,115.838 171.5,115.5C 171.5,117.833 171.5,120.167 171.5,122.5C 170.5,122.5 169.5,122.5 168.5,122.5C 168.5,116.5 168.5,110.5 168.5,104.5 Z"/></g>
<g><path style="opacity:1" fill="#151411" d="M 231.5,104.5 C 234.833,104.5 238.167,104.5 241.5,104.5C 241.5,105.5 241.5,106.5 241.5,107.5C 239.5,107.5 237.5,107.5 235.5,107.5C 235.5,108.833 235.5,110.167 235.5,111.5C 237.5,111.5 239.5,111.5 241.5,111.5C 241.5,112.5 241.5,113.5 241.5,114.5C 239.167,114.5 236.833,114.5 234.5,114.5C 234.5,116.167 234.5,117.833 234.5,119.5C 236.833,119.5 239.167,119.5 241.5,119.5C 241.5,120.5 241.5,121.5 241.5,122.5C 238.167,122.5 234.833,122.5 231.5,122.5C 231.5,116.5 231.5,110.5 231.5,104.5 Z"/></g>
<g><path style="opacity:1" fill="#1c1b18" d="M 303.5,104.5 C 305.144,104.286 306.644,104.62 308,105.5C 310.037,111.071 312.204,116.571 314.5,122C 312.051,122.775 310.384,121.942 309.5,119.5C 306.833,118.167 304.167,118.167 301.5,119.5C 300.616,121.942 298.949,122.775 296.5,122C 298.934,116.195 301.268,110.361 303.5,104.5 Z"/></g>
<g><path style="opacity:1" fill="#1d1c19" d="M 312.5,104.5 C 316.833,104.5 321.167,104.5 325.5,104.5C 325.5,105.5 325.5,106.5 325.5,107.5C 323.833,107.5 322.167,107.5 320.5,107.5C 320.5,112.5 320.5,117.5 320.5,122.5C 319.167,122.5 317.833,122.5 316.5,122.5C 316.5,117.5 316.5,112.5 316.5,107.5C 315.167,107.5 313.833,107.5 312.5,107.5C 312.5,106.5 312.5,105.5 312.5,104.5 Z"/></g>
<g><path style="opacity:1" fill="#1a1916" d="M 77.5,104.5 C 80.1667,104.5 82.8333,104.5 85.5,104.5C 86.2142,108.246 85.0475,109.246 82,107.5C 80.5962,107.509 79.4296,108.009 78.5,109C 80.4053,110.87 82.5719,112.37 85,113.5C 87.0673,120.769 84.234,123.602 76.5,122C 75.269,120.817 75.269,119.651 76.5,118.5C 78.9007,120.062 80.9007,119.729 82.5,117.5C 80.1831,115.684 78.0165,113.684 76,111.5C 75.1668,108.829 75.6668,106.496 77.5,104.5 Z"/></g>
<g><path style="opacity:1" fill="#181815" d="M 88.5,104.5 C 92.1667,104.5 95.8333,104.5 99.5,104.5C 99.5,105.5 99.5,106.5 99.5,107.5C 97.1667,107.5 94.8333,107.5 92.5,107.5C 92.5,108.833 92.5,110.167 92.5,111.5C 94.5,111.5 96.5,111.5 98.5,111.5C 98.5,112.5 98.5,113.5 98.5,114.5C 96.5,114.5 94.5,114.5 92.5,114.5C 92.5,116.167 92.5,117.833 92.5,119.5C 94.8333,119.5 97.1667,119.5 99.5,119.5C 99.5,120.5 99.5,121.5 99.5,122.5C 95.8333,122.5 92.1667,122.5 88.5,122.5C 88.5,116.5 88.5,110.5 88.5,104.5 Z"/></g>
<g><path style="opacity:1" fill="#191916" d="M 258.5,104.5 C 258.5,110.5 258.5,116.5 258.5,122.5C 257.022,122.762 255.689,122.429 254.5,121.5C 252.667,118.5 250.833,115.5 249,112.5C 248.502,115.817 248.335,119.15 248.5,122.5C 247.167,122.5 245.833,122.5 244.5,122.5C 244.5,116.5 244.5,110.5 244.5,104.5C 246.722,104.178 248.556,104.845 250,106.5C 254.932,118.708 256.766,118.041 255.5,104.5C 256.5,104.5 257.5,104.5 258.5,104.5 Z"/></g>
<g><path style="opacity:1" fill="#949391" d="M 258.5,104.5 C 259.167,104.5 259.833,104.5 260.5,104.5C 260.5,105.5 260.5,106.5 260.5,107.5C 259.833,112.5 259.167,117.5 258.5,122.5C 258.5,116.5 258.5,110.5 258.5,104.5 Z"/></g>
<g><path style="opacity:1" fill="#181714" d="M 21.5,104.5 C 25.0134,103.876 27.8467,104.876 30,107.5C 30.6667,111.5 30.6667,115.5 30,119.5C 25.8372,123.747 22.1705,123.414 19,118.5C 17.7179,113.295 18.5513,108.628 21.5,104.5 Z"/></g>
<g><path style="opacity:1" fill="#1a1916" d="M 48.5,104.5 C 53.7076,103.873 56.2076,106.206 56,111.5C 57.1638,109.351 58.3305,107.185 59.5,105C 60.635,104.251 61.635,104.417 62.5,105.5C 59.412,110.675 56.5787,116.008 54,121.5C 52.9505,122.517 51.7839,122.684 50.5,122C 51.9606,119.579 53.2939,117.079 54.5,114.5C 46.5801,115.198 44.5801,111.865 48.5,104.5 Z"/></g>
<g><path style="opacity:1" fill="#b7b7b5" d="M 49.5,107.5 C 50.5,107.5 51.5,107.5 52.5,107.5C 52.5,108.833 52.5,110.167 52.5,111.5C 51.5,111.5 50.5,111.5 49.5,111.5C 49.5,110.167 49.5,108.833 49.5,107.5 Z"/></g>
<g><path style="opacity:1" fill="#e1e1e0" d="M 137.5,107.5 C 138.833,107.5 140.167,107.5 141.5,107.5C 141.5,108.833 141.5,110.167 141.5,111.5C 140.167,111.5 138.833,111.5 137.5,111.5C 137.5,110.167 137.5,108.833 137.5,107.5 Z"/></g>
<g><path style="opacity:1" fill="#d7d7d6" d="M 171.5,107.5 C 175.161,107.35 176.161,108.85 174.5,112C 173.552,112.483 172.552,112.649 171.5,112.5C 171.5,110.833 171.5,109.167 171.5,107.5 Z"/></g>
<g><path style="opacity:1" fill="#191815" d="M 260.5,104.5 C 264.833,104.5 269.167,104.5 273.5,104.5C 273.5,105.5 273.5,106.5 273.5,107.5C 271.833,107.5 270.167,107.5 268.5,107.5C 268.5,112.5 268.5,117.5 268.5,122.5C 267.167,122.5 265.833,122.5 264.5,122.5C 264.5,117.5 264.5,112.5 264.5,107.5C 263.167,107.5 261.833,107.5 260.5,107.5C 260.5,106.5 260.5,105.5 260.5,104.5 Z"/></g>
<g><path style="opacity:1" fill="#ecebeb" d="M 23.5,107.5 C 25.1238,107.36 26.2904,108.027 27,109.5C 27.5428,112.868 27.3761,116.201 26.5,119.5C 25.1779,119.67 24.0113,119.337 23,118.5C 22.2446,114.745 22.4113,111.078 23.5,107.5 Z"/></g>
<g><path style="opacity:1" fill="#1a1917" d="M 375.5,104.5 C 376.978,104.238 378.311,104.571 379.5,105.5C 380.604,107.389 381.937,109.055 383.5,110.5C 385.027,108.807 386.36,106.973 387.5,105C 388.833,104.333 390.167,104.333 391.5,105C 389.542,107.748 387.709,110.582 386,113.5C 385.502,116.482 385.335,119.482 385.5,122.5C 384.167,122.5 382.833,122.5 381.5,122.5C 381.664,119.813 381.497,117.146 381,114.5C 378.888,111.273 377.055,107.94 375.5,104.5 Z"/></g>
<g><path style="opacity:1" fill="#c8c8c7" d="M 304.5,110.5 C 306.741,111.3 307.741,112.966 307.5,115.5C 306.167,115.5 304.833,115.5 303.5,115.5C 303.629,113.784 303.962,112.117 304.5,110.5 Z"/></g>
<g><path style="opacity:1" fill="#1a1916" d="M 367.5,104.5 C 369.144,104.286 370.644,104.62 372,105.5C 374.367,110.938 376.534,116.438 378.5,122C 376.051,122.775 374.384,121.942 373.5,119.5C 370.833,118.167 368.167,118.167 365.5,119.5C 364.543,122.15 362.876,122.817 360.5,121.5C 363.122,115.926 365.456,110.259 367.5,104.5 Z"/></g>
<g><path style="opacity:1" fill="#1d1c19" d="M 60.5,112.5 C 67.3091,112.951 68.9758,116.118 65.5,122C 58.9229,123.591 56.7562,121.091 59,114.5C 59.7172,113.956 60.2172,113.289 60.5,112.5 Z"/></g>
<g><path style="opacity:1" fill="#1b1a17" d="M 184.5,104.5 C 186.144,104.286 187.644,104.62 189,105.5C 191.037,111.071 193.204,116.571 195.5,122C 193.051,122.775 191.384,121.942 190.5,119.5C 187.833,118.167 185.167,118.167 182.5,119.5C 181.543,122.15 179.876,122.817 177.5,121.5C 180.036,115.885 182.37,110.218 184.5,104.5 Z"/></g>
<g><path style="opacity:1" fill="#c4c4c3" d="M 185.5,110.5 C 187.741,111.3 188.741,112.966 188.5,115.5C 187.167,115.5 185.833,115.5 184.5,115.5C 184.629,113.784 184.962,112.117 185.5,110.5 Z"/></g>
<g><path style="opacity:1" fill="#acacab" d="M 368.5,110.5 C 370.741,111.3 371.741,112.966 371.5,115.5C 370.167,115.5 368.833,115.5 367.5,115.5C 367.629,113.784 367.962,112.117 368.5,110.5 Z"/></g>
<g><path style="opacity:1" fill="#1b1a17" d="M 326.5,104.5 C 331.833,104.5 337.167,104.5 342.5,104.5C 344.166,119.164 345.832,119.164 347.5,104.5C 349.288,104.215 350.955,104.548 352.5,105.5C 354.148,117.36 355.981,117.36 358,105.5C 359.011,104.663 360.178,104.33 361.5,104.5C 360.168,110.494 358.835,116.494 357.5,122.5C 356.022,122.762 354.689,122.429 353.5,121.5C 352.633,118.065 351.466,114.731 350,111.5C 348.692,114.73 347.692,118.064 347,121.5C 345.644,122.38 344.144,122.714 342.5,122.5C 341.716,116.648 340.216,110.981 338,105.5C 335.894,107.291 333.394,107.958 330.5,107.5C 330.5,108.833 330.5,110.167 330.5,111.5C 332.5,111.5 334.5,111.5 336.5,111.5C 336.5,112.5 336.5,113.5 336.5,114.5C 334.5,114.5 332.5,114.5 330.5,114.5C 330.5,116.167 330.5,117.833 330.5,119.5C 332.833,119.5 335.167,119.5 337.5,119.5C 337.5,120.5 337.5,121.5 337.5,122.5C 333.833,122.5 330.167,122.5 326.5,122.5C 326.5,116.5 326.5,110.5 326.5,104.5 Z"/></g>
<g><path style="opacity:1" fill="#efefef" d="M 61.5,115.5 C 62.5862,115.62 63.2528,116.287 63.5,117.5C 63.1667,118.167 62.8333,118.833 62.5,119.5C 61.5713,118.311 61.238,116.978 61.5,115.5 Z"/></g>
<g><path style="opacity:1" fill="#1f1e1b" d="M 191.5,105.5 C 193.035,104.212 194.701,104.212 196.5,105.5C 197.919,107.336 199.086,109.336 200,111.5C 201.377,109.246 202.877,107.08 204.5,105C 207.5,104.333 210.5,104.333 213.5,105C 215.038,108.576 216.705,112.076 218.5,115.5C 220.269,112.294 221.769,108.961 223,105.5C 224.699,104.594 226.533,104.261 228.5,104.5C 228.5,110.5 228.5,116.5 228.5,122.5C 227.167,122.5 225.833,122.5 224.5,122.5C 224.925,109.576 223.592,109.576 220.5,122.5C 219.022,122.762 217.689,122.429 216.5,121.5C 213.126,110.687 211.793,111.02 212.5,122.5C 211.167,122.5 209.833,122.5 208.5,122.5C 208.666,116.824 208.499,111.157 208,105.5C 206.248,108.672 204.248,111.672 202,114.5C 201.503,117.146 201.336,119.813 201.5,122.5C 200.5,122.5 199.5,122.5 198.5,122.5C 198.656,115.812 196.323,110.145 191.5,105.5 Z"/></g>
<g><path style="opacity:1" fill="#a3a3a1" d="M 158.5,114.5 C 156.735,115.461 154.735,115.795 152.5,115.5C 152.5,116.5 152.5,117.5 152.5,118.5C 154.833,118.5 157.167,118.5 159.5,118.5C 159.768,120.099 159.434,121.432 158.5,122.5C 158.5,121.5 158.5,120.5 158.5,119.5C 156.167,119.5 153.833,119.5 151.5,119.5C 151.5,117.833 151.5,116.167 151.5,114.5C 153.833,114.5 156.167,114.5 158.5,114.5 Z"/></g>
<g><path style="opacity:1" fill="#181714" d="M 116.5,104.5 C 117.833,104.5 119.167,104.5 120.5,104.5C 120.334,108.846 120.501,113.179 121,117.5C 122.916,120.033 124.916,120.033 127,117.5C 127.499,113.179 127.666,108.846 127.5,104.5C 128.5,104.5 129.5,104.5 130.5,104.5C 130.666,109.511 130.499,114.511 130,119.5C 127.039,122.616 123.539,123.283 119.5,121.5C 118.416,120.335 117.583,119.002 117,117.5C 116.501,113.179 116.334,108.846 116.5,104.5 Z"/></g>
<g><path style="opacity:1" fill="#1a1916" d="M 35.5,104.5 C 43.5718,104.23 46.7384,108.23 45,116.5C 43.0852,122.652 39.4185,123.986 34,120.5C 31.6165,114.796 32.1165,109.463 35.5,104.5 Z"/></g>
<g><path style="opacity:1" fill="#e6e6e6" d="M 37.5,107.5 C 38.8221,107.33 39.9887,107.663 41,108.5C 41.6667,111.5 41.6667,114.5 41,117.5C 40.0475,119.592 38.7141,119.925 37,118.5C 36.2446,114.745 36.4113,111.078 37.5,107.5 Z"/></g>
<g><path style="opacity:1" fill="#181714" d="M 106.5,104.5 C 109.448,104.223 112.281,104.556 115,105.5C 115.749,106.635 115.583,107.635 114.5,108.5C 109.304,106.179 105.971,107.679 104.5,113C 105.627,118.732 108.96,120.565 114.5,118.5C 115.731,119.651 115.731,120.817 114.5,122C 104.333,123.833 100.167,119.667 102,109.5C 103.025,107.313 104.525,105.646 106.5,104.5 Z"/></g>
<g><path style="opacity:1" fill="#1b1a18" d="M 285.5,104.5 C 288.187,104.336 290.854,104.503 293.5,105C 295.405,105.826 295.739,106.993 294.5,108.5C 287.202,106.299 284.036,108.966 285,116.5C 286.848,119.041 289.348,120.041 292.5,119.5C 292.5,118.167 292.5,116.833 292.5,115.5C 291.167,115.5 289.833,115.5 288.5,115.5C 288.5,114.167 288.5,112.833 288.5,111.5C 290.833,111.5 293.167,111.5 295.5,111.5C 296.804,122.731 292.47,125.564 282.5,120C 279.157,113.853 280.157,108.687 285.5,104.5 Z"/></g>
</svg>
